<?xml version="1.0" encoding="UTF-8" standalone="no"?>
<!DOCTYPE svg PUBLIC "-//W3C//DTD SVG 1.1//EN"
 "http://www.w3.org/Graphics/SVG/1.1/DTD/svg11.dtd">
<!-- Generated by graphviz version 2.38.0 (20140413.2041)
 -->
<!-- Title: G Pages: 1 -->
<svg width="118pt" height="116pt"
 viewBox="0.00 0.00 118.49 116.00" xmlns="http://www.w3.org/2000/svg" xmlns:xlink="http://www.w3.org/1999/xlink">
<g id="graph0" class="graph" transform="scale(1 1) rotate(0) translate(4 112)">
<title>G</title>
<polygon fill="white" stroke="none" points="-4,4 -4,-112 114.49,-112 114.49,4 -4,4"/>
<!-- departments -->
<g id="node1" class="node"><title>departments</title>
<ellipse fill="none" stroke="black" cx="55.2451" cy="-90" rx="55.4913" ry="18"/>
<text text-anchor="middle" x="55.2451" y="-86.3" font-family="Times,serif" font-size="14.00">departments</text>
</g>
<!-- employees -->
<g id="node2" class="node"><title>employees</title>
<ellipse fill="none" stroke="black" cx="55.2451" cy="-18" rx="49.2915" ry="18"/>
<text text-anchor="middle" x="55.2451" y="-14.3" font-family="Times,serif" font-size="14.00">employees</text>
</g>
<!-- departments&#45;&gt;employees -->
<g id="edge1" class="edge"><title>departments&#45;&gt;employees</title>
<path fill="none" stroke="black" stroke-dasharray="5,2" d="M49.3669,-72.055C48.5488,-64.3456 48.3065,-55.0269 48.64,-46.3642"/>
<polygon fill="black" stroke="black" points="52.1394,-46.4915 49.3323,-36.2753 45.1558,-46.0122 52.1394,-46.4915"/>
</g>
<!-- employees&#45;&gt;departments -->
<g id="edge2" class="edge"><title>employees&#45;&gt;departments</title>
<path fill="none" stroke="black" stroke-dasharray="5,2" d="M61.1579,-36.2753C61.9596,-44.03 62.1855,-53.3618 61.8357,-62.0054"/>
<polygon fill="black" stroke="black" points="58.3392,-61.8325 61.1233,-72.055 65.3217,-62.3275 58.3392,-61.8325"/>
</g>
</g>
</svg>
