<?xml version="1.0" encoding="UTF-8" standalone="no"?>
<!DOCTYPE svg PUBLIC "-//W3C//DTD SVG 1.1//EN"
 "http://www.w3.org/Graphics/SVG/1.1/DTD/svg11.dtd">
<!-- Generated by graphviz version 2.38.0 (20140413.2041)
 -->
<!-- Title: G Pages: 1 -->
<svg width="131pt" height="188pt"
 viewBox="0.00 0.00 130.64 188.00" xmlns="http://www.w3.org/2000/svg" xmlns:xlink="http://www.w3.org/1999/xlink">
<g id="graph0" class="graph" transform="scale(1 1) rotate(0) translate(4 184)">
<title>G</title>
<polygon fill="white" stroke="none" points="-4,4 -4,-184 126.641,-184 126.641,4 -4,4"/>
<!-- addresses -->
<g id="node1" class="node"><title>addresses</title>
<ellipse fill="none" stroke="black" cx="55.2451" cy="-162" rx="45.4919" ry="18"/>
<text text-anchor="middle" x="55.2451" y="-158.3" font-family="Times,serif" font-size="14.00">addresses</text>
</g>
<!-- employees -->
<g id="node2" class="node"><title>employees</title>
<ellipse fill="none" stroke="black" cx="55.2451" cy="-90" rx="49.2915" ry="18"/>
<text text-anchor="middle" x="55.2451" y="-86.3" font-family="Times,serif" font-size="14.00">employees</text>
</g>
<!-- addresses&#45;&gt;employees -->
<g id="edge1" class="edge"><title>addresses&#45;&gt;employees</title>
<path fill="none" stroke="black" d="M55.2451,-143.697C55.2451,-135.983 55.2451,-126.712 55.2451,-118.112"/>
<polygon fill="black" stroke="black" points="58.7452,-118.104 55.2451,-108.104 51.7452,-118.104 58.7452,-118.104"/>
</g>
<!-- employees&#45;&gt;employees -->
<g id="edge2" class="edge"><title>employees&#45;&gt;employees</title>
<path fill="none" stroke="black" stroke-dasharray="5,2" d="M89.5754,-103.064C107.009,-104.972 122.641,-100.617 122.641,-90 122.641,-81.5394 112.714,-77.0556 99.8599,-76.5485"/>
<polygon fill="black" stroke="black" points="99.4365,-73.0619 89.5754,-76.9359 99.7001,-80.0569 99.4365,-73.0619"/>
</g>
<!-- departments -->
<g id="node3" class="node"><title>departments</title>
<ellipse fill="none" stroke="black" cx="55.2451" cy="-18" rx="55.4913" ry="18"/>
<text text-anchor="middle" x="55.2451" y="-14.3" font-family="Times,serif" font-size="14.00">departments</text>
</g>
<!-- employees&#45;&gt;departments -->
<g id="edge3" class="edge"><title>employees&#45;&gt;departments</title>
<path fill="none" stroke="black" d="M55.2451,-71.6966C55.2451,-63.9827 55.2451,-54.7125 55.2451,-46.1124"/>
<polygon fill="black" stroke="black" points="58.7452,-46.1043 55.2451,-36.1043 51.7452,-46.1044 58.7452,-46.1043"/>
</g>
</g>
</svg>
